<svg xmlns="http://www.w3.org/2000/svg" width="205" height="24" viewBox="0 0 205 24" fill="none">
<path d="M24.3259 10.8211C24.6062 10.6122 24.8142 10.3209 24.9206 9.98798C25.0269 9.65502 25.0265 9.29712 24.9192 8.96445C24.8119 8.63178 24.6032 8.34103 24.3223 8.13297C24.0414 7.9249 23.7025 7.80996 23.353 7.80425L16.5652 7.54782C16.5318 7.54551 16.4998 7.53361 16.473 7.51354C16.4463 7.49346 16.4259 7.46608 16.4143 7.43469L14.0687 1.09937C13.9509 0.777051 13.7368 0.498732 13.4556 0.302095C13.1743 0.105458 12.8394 0 12.4962 0C12.153 0 11.8181 0.105458 11.5369 0.302095C11.2556 0.498732 11.0416 0.777051 10.9237 1.09937L8.58568 7.45731C8.57412 7.48871 8.55373 7.51609 8.52697 7.53616C8.50021 7.55624 8.46821 7.56814 8.43484 7.57045L1.64699 7.82687C1.2975 7.83258 0.958554 7.94753 0.677684 8.15559C0.396814 8.36366 0.188104 8.65441 0.0808184 8.98708C-0.0264673 9.31975 -0.0269487 9.67765 0.0794418 10.0106C0.185832 10.3436 0.393759 10.6349 0.674069 10.8437L5.99875 15.0295C6.0254 15.0505 6.04532 15.0788 6.05604 15.111C6.06677 15.1432 6.06783 15.1778 6.05909 15.2105L4.22637 21.7042C4.1314 22.0349 4.1406 22.3868 4.25272 22.7121C4.36484 23.0373 4.57444 23.3202 4.853 23.5221C5.13156 23.724 5.46556 23.8352 5.80957 23.8406C6.15357 23.8459 6.49087 23.7452 6.77558 23.552L12.402 19.781C12.4297 19.7619 12.4626 19.7516 12.4962 19.7516C12.5299 19.7516 12.5628 19.7619 12.5905 19.781L18.2169 23.552C18.4977 23.7518 18.8338 23.8591 19.1785 23.8591C19.5231 23.8591 19.8592 23.7518 20.1401 23.552C20.4187 23.352 20.6285 23.0706 20.7406 22.7464C20.8527 22.4223 20.8616 22.0714 20.7661 21.742L18.9183 15.2256C18.9085 15.1929 18.909 15.158 18.9198 15.1256C18.9306 15.0932 18.9512 15.0649 18.9786 15.0446L24.3259 10.8211Z" fill="#FFA500"/>
<path d="M69.3259 10.8211C69.6062 10.6122 69.8142 10.3209 69.9206 9.98798C70.0269 9.65502 70.0265 9.29712 69.9192 8.96445C69.8119 8.63178 69.6032 8.34103 69.3223 8.13297C69.0414 7.9249 68.7025 7.80996 68.353 7.80425L61.5652 7.54782C61.5318 7.54551 61.4998 7.53361 61.473 7.51354C61.4463 7.49346 61.4259 7.46608 61.4143 7.43469L59.0687 1.09937C58.9509 0.777051 58.7368 0.498732 58.4556 0.302095C58.1743 0.105458 57.8394 0 57.4962 0C57.153 0 56.8181 0.105458 56.5369 0.302095C56.2556 0.498732 56.0416 0.777051 55.9237 1.09937L53.5857 7.45731C53.5741 7.48871 53.5537 7.51609 53.527 7.53616C53.5002 7.55624 53.4682 7.56814 53.4348 7.57045L46.647 7.82687C46.2975 7.83258 45.9586 7.94753 45.6777 8.15559C45.3968 8.36366 45.1881 8.65441 45.0808 8.98708C44.9735 9.31975 44.9731 9.67765 45.0794 10.0106C45.1858 10.3436 45.3938 10.6349 45.6741 10.8437L50.9988 15.0295C51.0254 15.0505 51.0453 15.0788 51.056 15.111C51.0668 15.1432 51.0678 15.1778 51.0591 15.2105L49.2264 21.7042C49.1314 22.0349 49.1406 22.3868 49.2527 22.7121C49.3648 23.0373 49.5744 23.3202 49.853 23.5221C50.1316 23.724 50.4656 23.8352 50.8096 23.8406C51.1536 23.8459 51.4909 23.7452 51.7756 23.552L57.402 19.781C57.4297 19.7619 57.4626 19.7516 57.4962 19.7516C57.5299 19.7516 57.5628 19.7619 57.5905 19.781L63.2169 23.552C63.4977 23.7518 63.8338 23.8591 64.1785 23.8591C64.5231 23.8591 64.8592 23.7518 65.1401 23.552C65.4187 23.352 65.6285 23.0706 65.7406 22.7464C65.8527 22.4223 65.8616 22.0714 65.7661 21.742L63.9183 15.2256C63.9085 15.1929 63.909 15.158 63.9198 15.1256C63.9306 15.0932 63.9512 15.0649 63.9786 15.0446L69.3259 10.8211Z" fill="#FFA500"/>
<path d="M114.326 10.8211C114.606 10.6122 114.814 10.3209 114.921 9.98798C115.027 9.65502 115.026 9.29712 114.919 8.96445C114.812 8.63178 114.603 8.34103 114.322 8.13297C114.041 7.9249 113.703 7.80996 113.353 7.80425L106.565 7.54782C106.532 7.54551 106.5 7.53361 106.473 7.51354C106.446 7.49346 106.426 7.46608 106.414 7.43469L104.069 1.09937C103.951 0.777051 103.737 0.498732 103.456 0.302095C103.174 0.105458 102.839 0 102.496 0C102.153 0 101.818 0.105458 101.537 0.302095C101.256 0.498732 101.042 0.777051 100.924 1.09937L98.5857 7.45731C98.5741 7.48871 98.5537 7.51609 98.527 7.53616C98.5002 7.55624 98.4682 7.56814 98.4348 7.57045L91.647 7.82687C91.2975 7.83258 90.9586 7.94753 90.6777 8.15559C90.3968 8.36366 90.1881 8.65441 90.0808 8.98708C89.9735 9.31975 89.9731 9.67765 90.0794 10.0106C90.1858 10.3436 90.3938 10.6349 90.6741 10.8437L95.9988 15.0295C96.0254 15.0505 96.0453 15.0788 96.056 15.111C96.0668 15.1432 96.0678 15.1778 96.0591 15.2105L94.2264 21.7042C94.1314 22.0349 94.1406 22.3868 94.2527 22.7121C94.3648 23.0373 94.5744 23.3202 94.853 23.5221C95.1316 23.724 95.4656 23.8352 95.8096 23.8406C96.1536 23.8459 96.4909 23.7452 96.7756 23.552L102.402 19.781C102.43 19.7619 102.463 19.7516 102.496 19.7516C102.53 19.7516 102.563 19.7619 102.591 19.781L108.217 23.552C108.498 23.7518 108.834 23.8591 109.178 23.8591C109.523 23.8591 109.859 23.7518 110.14 23.552C110.419 23.352 110.629 23.0706 110.741 22.7464C110.853 22.4223 110.862 22.0714 110.766 21.742L108.918 15.2256C108.908 15.1929 108.909 15.158 108.92 15.1256C108.931 15.0932 108.951 15.0649 108.979 15.0446L114.326 10.8211Z" fill="#FFA500"/>
<path d="M159.326 10.8211C159.606 10.6122 159.814 10.3209 159.921 9.98798C160.027 9.65502 160.026 9.29712 159.919 8.96445C159.812 8.63178 159.603 8.34103 159.322 8.13297C159.041 7.9249 158.703 7.80996 158.353 7.80425L151.565 7.54782C151.532 7.54551 151.5 7.53361 151.473 7.51354C151.446 7.49346 151.426 7.46608 151.414 7.43469L149.069 1.09937C148.951 0.777051 148.737 0.498732 148.456 0.302095C148.174 0.105458 147.839 0 147.496 0C147.153 0 146.818 0.105458 146.537 0.302095C146.256 0.498732 146.042 0.777051 145.924 1.09937L143.586 7.45731C143.574 7.48871 143.554 7.51609 143.527 7.53616C143.5 7.55624 143.468 7.56814 143.435 7.57045L136.647 7.82687C136.297 7.83258 135.959 7.94753 135.678 8.15559C135.397 8.36366 135.188 8.65441 135.081 8.98708C134.974 9.31975 134.973 9.67765 135.079 10.0106C135.186 10.3436 135.394 10.6349 135.674 10.8437L140.999 15.0295C141.025 15.0505 141.045 15.0788 141.056 15.111C141.067 15.1432 141.068 15.1778 141.059 15.2105L139.226 21.7042C139.131 22.0349 139.141 22.3868 139.253 22.7121C139.365 23.0373 139.574 23.3202 139.853 23.5221C140.132 23.724 140.466 23.8352 140.81 23.8406C141.154 23.8459 141.491 23.7452 141.776 23.552L147.402 19.781C147.43 19.7619 147.463 19.7516 147.496 19.7516C147.53 19.7516 147.563 19.7619 147.591 19.781L153.217 23.552C153.498 23.7518 153.834 23.8591 154.178 23.8591C154.523 23.8591 154.859 23.7518 155.14 23.552C155.419 23.352 155.629 23.0706 155.741 22.7464C155.853 22.4223 155.862 22.0714 155.766 21.742L153.918 15.2256C153.908 15.1929 153.909 15.158 153.92 15.1256C153.931 15.0932 153.951 15.0649 153.979 15.0446L159.326 10.8211Z" fill="#FFA500"/>
<path d="M204.326 10.8211C204.606 10.6122 204.814 10.3209 204.921 9.98798C205.027 9.65502 205.026 9.29712 204.919 8.96445C204.812 8.63178 204.603 8.34103 204.322 8.13297C204.041 7.9249 203.703 7.80996 203.353 7.80425L196.565 7.54782C196.532 7.54551 196.5 7.53361 196.473 7.51354C196.446 7.49346 196.426 7.46608 196.414 7.43469L194.069 1.09937C193.951 0.777051 193.737 0.498732 193.456 0.302095C193.174 0.105458 192.839 0 192.496 0C192.153 0 191.818 0.105458 191.537 0.302095C191.256 0.498732 191.042 0.777051 190.924 1.09937L188.586 7.45731C188.574 7.48871 188.554 7.51609 188.527 7.53616C188.5 7.55624 188.468 7.56814 188.435 7.57045L181.647 7.82687C181.297 7.83258 180.959 7.94753 180.678 8.15559C180.397 8.36366 180.188 8.65441 180.081 8.98708C179.974 9.31975 179.973 9.67765 180.079 10.0106C180.186 10.3436 180.394 10.6349 180.674 10.8437L185.999 15.0295C186.025 15.0505 186.045 15.0788 186.056 15.111C186.067 15.1432 186.068 15.1778 186.059 15.2105L184.226 21.7042C184.131 22.0349 184.141 22.3868 184.253 22.7121C184.365 23.0373 184.574 23.3202 184.853 23.5221C185.132 23.724 185.466 23.8352 185.81 23.8406C186.154 23.8459 186.491 23.7452 186.776 23.552L192.402 19.781C192.43 19.7619 192.463 19.7516 192.496 19.7516C192.53 19.7516 192.563 19.7619 192.591 19.781L198.217 23.552C198.498 23.7518 198.834 23.8591 199.178 23.8591C199.523 23.8591 199.859 23.7518 200.14 23.552C200.419 23.352 200.629 23.0706 200.741 22.7464C200.853 22.4223 200.862 22.0714 200.766 21.742L198.918 15.2256C198.908 15.1929 198.909 15.158 198.92 15.1256C198.931 15.0932 198.951 15.0649 198.979 15.0446L204.326 10.8211Z" fill="#FFA500"/>
</svg>