<svg xmlns="http://www.w3.org/2000/svg" width="220" height="56" viewBox="0 0 220 56" fill="none">
<path d="M67.7285 20.3498C67.7285 18.6067 68.102 16.9881 68.7246 15.3695C69.3471 13.8754 70.2186 12.5058 71.4637 11.3853C72.7088 10.2647 74.2029 9.39317 75.8214 8.89514C77.689 8.27261 79.6811 8.02359 81.6733 8.02359C83.9144 7.89909 86.1555 8.27261 88.2721 9.01965C89.7662 9.64218 91.1358 10.3892 92.3808 11.5098C93.2524 12.3813 93.9994 13.3774 94.4974 14.4979C94.871 15.3695 95.12 16.241 95.2445 17.1126C95.2445 17.4861 95.12 17.7351 94.871 17.9841C94.622 18.2331 94.2484 18.3576 93.9994 18.3576H90.2642C90.0152 18.3576 89.6417 18.2331 89.3927 18.1086C89.2682 17.9841 89.0191 17.7351 89.0191 17.6106C89.0191 17.4861 88.7701 17.2371 88.5211 16.8636C88.1476 16.3655 87.7741 15.992 87.2761 15.6185C86.6535 15.1205 85.9065 14.6224 85.1594 14.3734C84.0389 13.9999 82.9183 13.8754 81.6733 13.8754C79.6811 13.6264 77.689 14.2489 76.195 15.6185C74.8254 16.8636 73.9538 18.7312 73.9538 20.5988C73.9538 21.7193 73.8293 22.9644 73.8293 24.334C73.8293 25.7035 73.8293 26.9486 73.9538 28.0692C73.8293 30.1858 74.7009 32.1779 76.195 33.5475C77.8136 34.7925 79.6811 35.4151 81.6733 35.2905C82.6693 35.2905 83.7899 35.166 84.7859 34.917C85.6575 34.668 86.529 34.2945 87.2761 33.672C88.0231 33.1739 88.5211 32.4269 88.8946 31.5553C89.2682 30.5593 89.5172 29.3142 89.5172 28.1937V27.9447H83.2918C82.9183 27.9447 82.6693 27.8202 82.4203 27.5711C82.1713 27.3221 82.0468 27.0731 82.0468 26.6996V23.3379C82.0468 22.9644 82.1713 22.7154 82.4203 22.4664C82.6693 22.2174 82.9183 22.0928 83.2918 22.0928H94.4974C94.871 22.0928 95.12 22.2174 95.369 22.4664C95.618 22.7154 95.7425 22.9644 95.7425 23.3379V28.4427C95.7425 30.1858 95.4935 31.9289 94.871 33.5475C94.2484 35.0415 93.3769 36.4111 92.2563 37.5317C91.0113 38.6522 89.5172 39.6483 87.8986 40.1463C83.9144 41.3914 79.6812 41.3914 75.6969 40.1463C74.0784 39.6483 72.7088 38.7767 71.4637 37.5317C70.3432 36.4111 69.4716 35.0415 68.8491 33.5475C68.2265 31.9289 67.853 30.1858 67.7285 28.4427C67.7285 27.8201 67.7285 27.1976 67.7285 26.5751C67.7285 25.828 67.7285 25.2055 67.7285 24.4585C67.7285 23.7114 67.7285 22.9644 67.7285 22.3419C67.7285 21.7193 67.7285 20.9723 67.7285 20.3498Z" fill="#444A51"/>
<path d="M97.7402 28.6918C97.7402 27.0732 97.9892 25.4546 98.4873 23.8361C98.9853 22.342 99.7323 21.0969 100.728 19.8518C101.724 18.7313 102.97 17.8597 104.339 17.2372C105.833 16.6147 107.452 16.2411 108.946 16.2411C110.564 16.2411 112.183 16.4902 113.553 17.2372C114.922 17.8597 116.167 18.6068 117.163 19.7273C118.159 20.8479 118.906 22.093 119.404 23.4625C119.902 24.9566 120.276 26.4507 120.276 27.9448V30.0614C120.276 30.8084 119.778 31.3065 119.031 31.3065H103.717C103.717 31.929 103.841 32.5515 104.09 33.1741C104.339 33.6721 104.837 34.1701 105.211 34.5436C105.709 34.9171 106.331 35.1662 106.954 35.4152C107.576 35.5397 108.199 35.6642 108.946 35.6642C109.693 35.6642 110.564 35.5397 111.311 35.4152C111.809 35.2907 112.308 35.0417 112.806 34.6681C113.055 34.4191 113.304 34.2946 113.677 34.1701C113.926 34.0456 114.3 34.0456 114.549 34.0456H118.284C118.657 34.0456 118.906 34.1701 119.155 34.4191C119.404 34.6681 119.529 34.9171 119.529 35.2907C119.404 35.9132 119.155 36.4112 118.782 36.9093C118.284 37.6563 117.537 38.4033 116.79 38.9014C115.794 39.6484 114.673 40.1464 113.553 40.6445C112.059 41.1425 110.564 41.3915 109.07 41.267C107.452 41.267 105.833 41.018 104.464 40.3954C103.094 39.8974 101.849 39.0259 100.977 37.9053C99.9814 36.7847 99.2343 35.4152 98.7363 34.0456C97.9893 32.178 97.7402 30.4349 97.7402 28.6918ZM108.946 21.8439C108.199 21.8439 107.452 21.9685 106.705 22.2175C106.082 22.4665 105.584 22.84 105.086 23.2135C104.713 23.587 104.339 24.0851 104.09 24.5831C103.841 25.0811 103.717 25.5791 103.717 26.0772H114.051C114.051 25.5791 113.926 25.0811 113.802 24.5831C113.677 24.0851 113.304 23.587 112.93 23.2135C112.557 22.7155 111.934 22.4665 111.436 22.2175C110.689 21.8439 109.817 21.7194 108.946 21.8439Z" fill="#444A51"/>
<path d="M129.738 31.9289C129.738 32.8004 129.987 33.5475 130.485 34.17C131.232 34.7925 132.353 35.166 133.349 35.0415H136.088C136.835 35.0415 137.333 35.5396 137.333 36.2866V39.2748C137.333 39.6483 137.208 39.8973 136.959 40.1463C136.71 40.3953 136.461 40.5198 136.088 40.5198H132.726C130.36 40.6443 127.995 39.8973 126.127 38.4032C124.509 36.6601 123.637 34.419 123.762 32.0534V22.2174H122.019C121.645 22.2174 121.396 22.0929 121.147 21.8438C120.898 21.5948 120.773 21.3458 120.773 20.9723V17.9841C120.773 17.2371 121.271 16.7391 122.019 16.7391H123.762V10.3892C123.762 10.0157 123.886 9.7667 124.135 9.51768C124.384 9.26867 124.633 9.14417 125.007 9.14417H128.493C129.24 9.14417 129.738 9.64219 129.738 10.3892V16.7391H135.714C136.088 16.7391 136.337 16.8636 136.586 17.1126C136.835 17.3616 136.959 17.6106 136.959 17.9841V20.9723C136.959 21.3458 136.835 21.5948 136.586 21.8438C136.337 22.0929 136.088 22.2174 135.714 22.2174H129.738V31.9289Z" fill="#444A51"/>
<path d="M156.507 9.76672C156.88 9.76672 157.254 9.89123 157.627 10.1402C157.876 10.5138 158.125 10.8873 158.25 11.2608L169.206 39.1503C169.206 39.2748 169.206 39.3993 169.206 39.3993C169.206 40.1463 168.708 40.6444 167.961 40.6444H164.724C164.226 40.6444 163.852 40.5199 163.479 40.2709C163.23 40.0218 163.105 39.7728 162.981 39.5238L161.113 34.5435H147.044L145.177 39.5238C145.052 39.7728 144.927 40.0218 144.678 40.2709C144.305 40.5199 143.931 40.6444 143.433 40.6444H140.196C139.823 40.6444 139.574 40.5199 139.325 40.2709C139.076 40.0218 138.951 39.7728 138.951 39.3993C138.951 39.2748 138.951 39.1503 138.951 39.1503L149.908 11.2608C150.032 10.8873 150.281 10.3893 150.53 10.1402C150.779 9.89123 151.153 9.76672 151.651 9.76672H156.507ZM158.997 28.9407L154.016 16.2411L149.161 28.9407H158.997Z" fill="#444A51"/>
<path d="M184.144 41.018C183.272 41.018 182.525 40.8935 181.654 40.769C181.031 40.6444 180.284 40.3954 179.662 40.1464C179.164 39.8974 178.666 39.6484 178.168 39.2749C177.794 39.0259 177.545 38.6523 177.172 38.4033V46.6208C177.172 47.3678 176.674 47.8658 175.927 47.8658H172.44C172.067 47.8658 171.818 47.7413 171.569 47.4923C171.32 47.2433 171.195 46.9943 171.195 46.6208V17.9842C171.195 17.6107 171.32 17.3617 171.569 17.1127C171.818 16.8637 172.067 16.7392 172.44 16.7392H175.927C176.3 16.7392 176.549 16.8637 176.798 17.1127C177.047 17.3617 177.172 17.6107 177.172 17.9842V18.9803C177.421 18.6068 177.794 18.3578 178.168 18.1087C178.666 17.7352 179.039 17.4862 179.662 17.2372C180.284 16.9882 180.907 16.7392 181.654 16.4902C182.525 16.3657 183.272 16.2411 184.144 16.2411C185.638 16.2411 187.008 16.4902 188.253 17.1127C189.498 17.7352 190.494 18.4823 191.365 19.4783C192.237 20.4744 192.984 21.5949 193.482 22.84C193.98 24.0851 194.229 25.4546 194.354 26.9487C194.354 27.4467 194.354 27.9448 194.354 28.5673C194.354 29.1898 194.354 29.6879 194.354 30.1859C194.354 31.5555 193.98 32.925 193.482 34.2946C192.984 35.5397 192.361 36.7847 191.365 37.7808C190.494 38.7768 189.373 39.6484 188.253 40.1464C187.008 40.769 185.514 41.018 184.144 41.018ZM188.377 29.9369C188.502 29.0653 188.502 28.1938 188.377 27.3222C188.377 25.7037 187.755 24.2096 186.51 23.089C185.514 22.2175 184.144 21.8439 182.774 21.8439C181.405 21.8439 180.035 22.2175 178.915 23.2135C177.794 24.2096 177.172 25.5791 177.172 27.0732C177.047 27.6958 177.047 28.1938 177.047 28.8163C177.047 29.4389 177.047 29.9369 177.172 30.5594C177.296 33.5476 179.786 35.7887 182.774 35.6642C184.144 35.6642 185.514 35.1662 186.51 34.4191C187.755 33.174 188.377 31.5555 188.377 29.9369Z" fill="#444A51"/>
<path d="M209.79 41.018C208.918 41.018 208.047 40.8935 207.175 40.769C206.553 40.6444 205.806 40.3954 205.183 40.1464C204.685 39.8974 204.187 39.6484 203.689 39.2749C203.316 39.0259 203.067 38.6523 202.693 38.4033V46.6208C202.693 46.9943 202.569 47.2433 202.32 47.4923C202.071 47.7413 201.822 47.8658 201.448 47.8658H197.962C197.215 47.8658 196.717 47.3678 196.717 46.6208V17.9842C196.717 17.2372 197.215 16.7392 197.962 16.7392H201.448C201.822 16.7392 202.071 16.8637 202.32 17.1127C202.569 17.3617 202.693 17.6107 202.693 17.9842V18.9803C202.942 18.6068 203.316 18.3578 203.689 18.1087C204.187 17.7352 204.561 17.4862 205.183 17.2372C205.806 16.9882 206.428 16.7392 207.175 16.4902C208.047 16.2412 208.918 16.2411 209.79 16.2411C211.284 16.2411 212.654 16.4902 213.899 17.1127C215.144 17.7352 216.14 18.4823 217.011 19.4783C217.883 20.4744 218.63 21.5949 219.128 22.84C219.626 24.0851 219.875 25.4546 220 26.9487C220 27.4467 220 27.9448 220 28.5673C220 29.1898 220 29.6879 220 30.1859C220 31.5555 219.626 32.925 219.128 34.2946C218.63 35.5397 218.007 36.7847 217.011 37.7808C216.14 38.7768 215.019 39.6484 213.899 40.1464C212.654 40.769 211.16 41.018 209.79 41.018ZM214.023 29.9369C214.148 29.0653 214.148 28.1938 214.023 27.3222C214.023 25.7037 213.401 24.2096 212.156 23.089C211.035 22.2175 209.665 21.8439 208.296 21.8439C206.926 21.8439 205.557 22.342 204.561 23.2135C203.44 24.2096 202.818 25.5791 202.818 27.0732C202.693 27.6958 202.693 28.1938 202.693 28.8163C202.693 29.4389 202.693 29.9369 202.818 30.5594C202.942 31.929 203.565 33.2986 204.561 34.2946C205.557 35.1662 206.926 35.6642 208.296 35.6642C209.665 35.6642 211.035 35.1662 212.156 34.2946C213.276 33.174 214.023 31.5555 214.023 29.9369Z" fill="#444A51"/>
<path d="M56.8996 24.4585L41.5852 9.14415C41.0872 8.64612 40.3402 8.64612 39.8421 9.14415L36.854 12.1323L49.1801 24.4585C49.6782 24.9565 49.6782 25.7035 49.3047 26.2016C49.3047 26.2016 49.3047 26.2016 49.1801 26.3261L36.4805 38.9012L39.4686 41.8894C39.9667 42.3874 40.7137 42.3874 41.2117 42.0139C41.2117 42.0139 41.2117 42.0139 41.3362 41.8894L57.0241 26.2016C57.3976 25.828 57.3976 24.9565 56.8996 24.4585Z" fill="#2CB5B4"/>
<path d="M30.8787 10.2649L29.7581 9.14436C29.2601 8.64633 28.513 8.64633 28.015 9.01985C28.015 9.01985 28.015 9.01985 27.8905 9.14436L24.9023 12.1325L26.8945 14.1246L30.7542 17.9843L34.6139 14.1246L30.8787 10.2649Z" fill="#8CBF44"/>
<path d="M30.5042 32.9249L26.6445 36.7846L24.6523 38.7767L27.6405 41.7648C28.1385 42.2629 28.8856 42.2629 29.3836 41.7648L30.5042 40.6443L34.3639 36.7846L30.5042 32.9249Z" fill="#8CBF44"/>
<path d="M37.2273 24.4586C37.7253 24.9566 37.7253 25.8281 37.2273 26.3262L30.5039 32.925L34.3636 36.7847L44.9467 26.2017C45.4447 25.7036 45.4447 24.8321 44.9467 24.3341L34.7371 14.1245L30.8774 17.9842L37.2273 24.4586Z" fill="#B8CE2C"/>
<path d="M12.2016 24.832L22.9092 14.1244L18.925 10.1402L17.929 9.14415C17.4309 8.64612 16.5594 8.64612 16.0614 9.14415L0.37352 24.832C-0.124507 25.33 -0.124507 26.077 0.37352 26.5751L15.6878 41.8894C16.1859 42.3874 16.9329 42.3874 17.4309 41.8894L18.5515 40.7688L22.4112 36.9091L12.2016 26.6996C11.5791 26.3261 11.3301 25.7035 11.8281 25.081C11.9526 24.832 12.0771 24.832 12.2016 24.832Z" fill="#87EFEF"/>
<path d="M24.1528 24.8321L28.8841 20.1008L24.8999 16.2411L22.9078 14.1245L12.3247 24.7076C11.8267 25.2056 11.8267 25.9526 12.3247 26.4507L22.5342 36.6602L24.5263 34.6681L28.386 30.8084L24.1528 26.5752C23.6548 26.2017 23.6548 25.3301 24.1528 24.8321Z" fill="#8CBF44"/>
<path d="M24.1528 26.5749L28.5105 30.9327L33.2418 26.2014C33.7398 25.7034 33.7398 24.8318 33.2418 24.3338L28.8841 19.9761L24.1528 24.8318C23.6548 25.3299 23.6548 26.0769 24.1528 26.5749Z" fill="#B8CE2C"/>
<path d="M30.8787 10.2649L29.7581 9.14436C29.2601 8.64633 28.513 8.64633 28.015 9.01985C28.015 9.01985 28.015 9.01985 27.8905 9.14436L24.9023 12.1325L26.8945 14.1246L30.7542 17.9843L34.6139 14.1246L30.8787 10.2649Z" fill="#41E3E2"/>
<path d="M30.5042 32.9249L26.6445 36.7846L24.6523 38.7767L27.6405 41.7648C28.1385 42.2629 28.8856 42.2629 29.3836 41.7648L30.5042 40.6443L34.3639 36.7846L30.5042 32.9249Z" fill="#41E3E2"/>
<path d="M37.2273 24.4586C37.7253 24.9566 37.7253 25.8281 37.2273 26.3262L30.5039 32.925L34.3636 36.7847L44.9467 26.2017C45.4447 25.7036 45.4447 24.8321 44.9467 24.3341L34.7371 14.1245L30.8774 17.9842L37.2273 24.4586Z" fill="#4FBCC1"/>
<path d="M12.2016 24.832L22.9092 14.1244L18.925 10.1402L17.929 9.14415C17.4309 8.64612 16.5594 8.64612 16.0614 9.14415L0.37352 24.832C-0.124507 25.33 -0.124507 26.077 0.37352 26.5751L15.6878 41.8894C16.1859 42.3874 16.9329 42.3874 17.4309 41.8894L18.5515 40.7688L22.4112 36.9091L12.2016 26.6996C11.5791 26.3261 11.3301 25.7035 11.8281 25.081C11.9526 24.832 12.0771 24.832 12.2016 24.832Z" fill="#87EFEF"/>
<path d="M24.1528 24.8321L28.8841 20.1008L24.8999 16.2411L22.9078 14.1245L12.3247 24.7076C11.8267 25.2056 11.8267 25.9526 12.3247 26.4507L22.5342 36.6602L24.5263 34.6681L28.386 30.8084L24.1528 26.5752C23.6548 26.2017 23.6548 25.3301 24.1528 24.8321Z" fill="#41E3E2"/>
<path d="M24.1528 26.5749L28.5105 30.9327L33.2418 26.2014C33.7398 25.7034 33.7398 24.8318 33.2418 24.3338L28.8841 19.9761L24.1528 24.8318C23.6548 25.3299 23.6548 26.0769 24.1528 26.5749Z" fill="#4FBCC1"/>
</svg>