<svg xmlns="http://www.w3.org/2000/svg" width="55" height="56" viewBox="0 0 55 56" fill="none">
<g clip-path="url(#clip0)">
<path d="M28.236 55.6484C15.919 55.6151 5.18681 47.8346 1.68587 36.2296C-1.23806 26.5053 0.657593 17.6171 7.23411 9.84952C11.2769 5.07618 16.4904 2.15041 22.6194 0.898357C26.0478 0.19913 29.5792 0.170241 33.0186 0.813284C33.4033 0.883562 33.407 0.987129 33.2572 1.29783C31.5656 4.81911 29.882 8.34533 28.2065 11.8765C28.1649 11.9869 28.0879 12.0804 27.9875 12.1423C27.8871 12.2043 27.7689 12.2311 27.6516 12.2186C24.1275 12.3087 20.7348 13.5748 18.0133 15.8155C15.2917 18.0561 13.3977 21.1426 12.6325 24.5838C10.944 32.1054 15.0127 39.8858 22.1922 42.6433C27.8902 44.8312 33.1925 43.9601 38.0157 40.2206C38.2617 40.0356 38.3634 39.9987 38.5391 40.3038C40.3885 43.5403 42.254 46.7706 44.1355 49.9947C44.3001 50.2777 44.2409 50.4053 43.9967 50.5755C40.3638 53.1458 36.1612 54.7958 31.7499 55.3839C30.5842 55.5343 29.4112 55.6225 28.236 55.6484Z" fill="#EF492D"/>
<path d="M47.3711 47.6404C47.2195 47.5591 47.1769 47.3926 47.0993 47.2576C44.9959 43.6204 42.8999 39.9796 40.8113 36.335C40.7402 36.1857 40.6244 36.0623 40.4798 35.982C40.3352 35.9018 40.1692 35.8687 40.0049 35.8874C35.8289 35.9004 31.6548 35.8874 27.4788 35.8874H26.9592C26.9554 35.727 27.0137 35.5713 27.1219 35.4528C29.2426 31.7688 31.3645 28.0847 33.4876 24.4007C33.544 24.2789 33.637 24.1777 33.7538 24.1114C33.8705 24.045 34.005 24.0169 34.1386 24.0308C38.4132 24.0419 42.6866 24.0419 46.9587 24.0308C47.0915 24.017 47.2253 24.0452 47.3411 24.1116C47.457 24.178 47.549 24.2791 47.6042 24.4007C49.7359 28.1156 51.8775 31.8255 54.029 35.5305C54.1009 35.6254 54.1413 35.7405 54.1446 35.8595C54.1479 35.9785 54.114 36.0956 54.0475 36.1944C51.8862 39.9265 49.7328 43.655 47.5875 47.3797C47.5302 47.474 47.5043 47.6035 47.3711 47.6404Z" fill="#EF492D"/>
<path d="M38.3679 8.51795C37.6022 7.7523 36.8883 7.01993 36.1486 6.29866C35.9192 6.07673 36.0801 5.91213 36.1781 5.74383C37.0247 4.26981 38.403 3.17539 40.0305 2.6849C41.0167 2.35943 42.0602 2.24395 43.0938 2.34587C44.1273 2.44779 45.1281 2.76487 46.0318 3.27671C49.3608 5.07619 49.063 9.25032 47.1415 11.1367C46.413 11.8382 45.5878 12.4317 44.691 12.8992C43.7663 13.3912 42.8416 13.8554 41.9354 14.3787C41.1827 14.8097 40.5964 15.4052 40.3245 16.267C40.2136 16.6147 40.2801 16.7053 40.6519 16.7016C43.0968 16.6868 45.5436 16.7016 47.9904 16.6868C48.3602 16.6868 48.4989 16.7571 48.4841 17.1603C48.4509 18.0239 48.4638 18.8895 48.4841 19.7494C48.4841 20.0232 48.4083 20.1193 48.1272 20.1193C44.1954 20.1119 40.2647 20.1119 36.3353 20.1193C36.1504 20.1193 35.9784 20.1193 35.9766 19.8512C35.9766 17.1288 36.4796 14.5933 38.6101 12.6514C39.625 11.7527 40.7642 11.0052 41.9927 10.4321C42.6659 10.1029 43.3465 9.7885 43.9346 9.31135C44.4487 8.89338 44.8038 8.38664 44.8408 7.70236C44.8963 6.63155 44.0493 5.8363 42.7695 5.75308C40.9293 5.62177 39.6014 6.45031 38.673 7.98902C38.5805 8.14067 38.4955 8.29602 38.3679 8.51795Z" fill="#EF492D"/>
<path d="M47.7439 51.5168V50.6273H47.4258V50.4423H48.2784V50.6273H47.9566V51.5168H47.7439ZM48.4152 51.5168V50.446H48.7389L48.9238 51.1765L49.1087 50.446H49.4342V51.5168H49.2512V50.6735L49.0385 51.5168H48.8295L48.6187 50.6735V51.5168H48.4152Z" fill="#EF492D"/>
</g>
<defs>
<clipPath id="clip0">
<rect width="54.4954" height="56" fill="white"/>
</clipPath>
</defs>
</svg>