<svg xmlns="http://www.w3.org/2000/svg" width="220" height="49" viewBox="0 0 220 49" fill="none">
<path d="M0 17.8758L20.163 17.8799L32.4235 17.882V5.7356L0 17.8758Z" fill="#FF9D28"/>
<path d="M32.4238 5.73549V48.6182L47.7369 0L32.4238 5.73549Z" fill="#68C5ED"/>
<path d="M32.4206 17.8819L20.1602 17.8798L32.4206 48.6183V17.8819Z" fill="#044D80"/>
<path d="M0 17.8756L23.3071 25.7667L20.163 17.8796L0 17.8756Z" fill="#E54747"/>
<path d="M74.2768 37.3299C74.099 37.5077 73.8028 37.7295 73.3886 37.9959C72.9737 38.2626 72.4337 38.529 71.7676 38.7957C71.1015 39.0618 70.2868 39.2909 69.325 39.484C68.3624 39.676 67.2599 39.7725 66.0164 39.7725C63.618 39.7725 61.5453 39.3874 59.7987 38.618C58.0514 37.8487 56.6081 36.7746 55.4686 35.3982C54.3286 34.0213 53.4924 32.3933 52.9595 30.5128C52.4265 28.6328 52.1602 26.5679 52.1602 24.3174C52.1602 22.0678 52.4488 19.9874 53.0262 18.0778C53.6034 16.168 54.4694 14.518 55.624 13.1258C56.7788 11.7346 58.2221 10.6464 59.9543 9.86153C61.6863 9.07757 63.7215 8.68469 66.0607 8.68469C67.2155 8.68469 68.2591 8.78865 69.1918 8.99553C70.1245 9.20286 70.9384 9.44733 71.6345 9.72834C72.3298 10.0101 72.9073 10.3056 73.3665 10.6166C73.8252 10.9274 74.173 11.1871 74.4103 11.3937C74.6767 11.6311 74.9058 11.9121 75.0987 12.2374C75.2909 12.5636 75.3873 12.9189 75.3873 13.3035C75.3873 13.896 75.1652 14.4879 74.7212 15.0799C74.2771 15.6725 73.7885 16.2202 73.2554 16.7231C72.9001 16.3679 72.5005 16.0057 72.0565 15.6352C71.6123 15.2651 71.1162 14.9398 70.5687 14.6581C70.0205 14.3771 69.3987 14.1404 68.7033 13.9475C68.0074 13.7552 67.2303 13.6587 66.3719 13.6587C64.8618 13.6587 63.5962 13.9627 62.5747 14.5692C61.5532 15.1764 60.7315 15.9681 60.1099 16.9452C59.4882 17.9224 59.044 19.0401 58.7775 20.2983C58.5111 21.557 58.3779 22.8373 58.3779 24.1399C58.3779 25.5318 58.5111 26.8641 58.7775 28.1367C59.0438 29.4099 59.5025 30.5353 60.1543 31.5119C60.8051 32.4889 61.6566 33.2738 62.7079 33.8656C63.7584 34.4584 65.0685 34.754 66.6383 34.754C67.4667 34.754 68.2295 34.6506 68.9254 34.4433C69.6206 34.2363 70.2355 33.9844 70.7684 33.6878C71.3013 33.3925 71.7677 33.0818 72.1673 32.7558C72.5671 32.43 72.9001 32.1491 73.1667 31.9117C73.3443 32.1193 73.551 32.3712 73.7884 32.6669C74.0269 32.9656 74.2493 33.277 74.4545 33.5995C74.6614 33.9256 74.839 34.251 74.9874 34.5762C75.1352 34.9026 75.2094 35.1982 75.2094 35.4643C75.2094 35.8497 75.1352 36.1752 74.9874 36.4415C74.8389 36.7081 74.6021 37.0045 74.2768 37.3299ZM97.1638 33.9238C97.1638 36.277 97.5058 37.9898 98.1913 39.0621C97.6552 39.2701 97.1562 39.4193 96.6945 39.5086C96.2324 39.5981 95.7487 39.6426 95.2425 39.6426C94.1703 39.6426 93.3583 39.4341 92.8077 39.0172C92.2562 38.6006 91.9063 38.0049 91.7578 37.23C91.1021 37.9158 90.2384 38.4963 89.1663 38.973C88.094 39.4487 86.783 39.6876 85.2346 39.6876C84.4303 39.6876 83.6262 39.5761 82.822 39.3541C82.0176 39.1304 81.2876 38.7673 80.6325 38.2632C79.977 37.758 79.4411 37.0825 79.0242 36.2362C78.6067 35.3899 78.3986 34.3583 78.3986 33.1412C78.3986 31.6269 78.7631 30.3943 79.4933 29.4446C80.2229 28.4941 81.1388 27.7446 82.2412 27.1951C83.3428 26.6462 84.5344 26.2684 85.8155 26.06C87.0959 25.8519 88.2729 25.7187 89.345 25.6586C89.7027 25.6292 90.0523 25.6139 90.3951 25.6139H91.3556V24.8007C91.3556 23.6558 91.0499 22.8424 90.4397 22.3608C89.8287 21.879 88.8382 21.6375 87.4685 21.6375C86.1875 21.6375 85.0481 21.8462 84.0506 22.2629C83.0523 22.6804 82.0769 23.1565 81.1241 23.6928C80.7066 23.1865 80.3713 22.6282 80.1188 22.0173C79.8656 21.4072 79.7391 20.9528 79.7391 20.6546C79.7391 20.2379 79.9694 19.8357 80.4316 19.4482C80.8931 19.0616 81.5263 18.7111 82.3305 18.3983C83.1349 18.0855 84.0577 17.8329 85.1008 17.6388C86.1429 17.4454 87.2452 17.3484 88.407 17.3484C90.0153 17.3484 91.378 17.5125 92.4949 17.8399C93.6119 18.168 94.5203 18.6741 95.2204 19.3589C95.9199 20.0446 96.419 20.9004 96.717 21.9279C97.0144 22.9556 97.1639 24.155 97.1639 25.5245V33.9238H97.1638ZM91.4447 28.7412H90.8194C90.6104 28.7412 90.4018 28.7567 90.1939 28.7861C89.4488 28.8461 88.7115 28.9353 87.9823 29.0539C87.2521 29.1733 86.6041 29.3819 86.0388 29.6796C85.4726 29.9776 85.0111 30.3651 84.6538 30.841C84.2962 31.3179 84.1175 31.9288 84.1175 32.6731C84.1175 33.5072 84.3556 34.2142 84.8323 34.7952C85.3084 35.3761 86.1127 35.6665 87.245 35.6665C87.8105 35.6665 88.3469 35.5926 88.8535 35.4428C89.3596 35.2945 89.8064 35.1008 90.1939 34.8624C90.5806 34.6241 90.8864 34.3637 91.1098 34.0803C91.3331 33.7976 91.4448 33.5372 91.4448 33.2987V28.7412H91.4447ZM108.288 19.9395C108.763 19.3741 109.506 18.8003 110.515 18.2193C111.524 17.6385 112.801 17.3481 114.345 17.3481C115.444 17.3481 116.491 17.5344 117.486 17.9065C118.48 18.2793 119.364 18.8826 120.136 19.7161C120.908 20.5503 121.524 21.6526 121.984 23.0223C122.445 24.3927 122.675 26.076 122.675 28.0709C122.675 30.3942 122.407 32.3084 121.873 33.8122C121.338 35.3169 120.648 36.5084 119.802 37.3867C118.956 38.2654 118.013 38.8835 116.974 39.2408C115.935 39.5981 114.895 39.7771 113.856 39.7771C112.995 39.7771 112.245 39.6802 111.607 39.4867C110.968 39.2927 110.427 39.0774 109.981 38.8388C109.536 38.6007 109.195 38.3628 108.957 38.1239C108.72 37.8858 108.571 37.7216 108.512 37.6321V48.6152H102.436V17.9735C102.585 17.9443 102.765 17.9143 102.976 17.8843C103.156 17.8551 103.366 17.8326 103.606 17.8172C103.846 17.8026 104.131 17.795 104.461 17.795C105.451 17.795 106.292 17.9591 106.982 18.2865C107.672 18.6146 108.108 19.1653 108.288 19.9395ZM116.33 28.2049C116.33 27.3114 116.256 26.4779 116.108 25.7031C115.96 24.929 115.716 24.2586 115.375 23.6926C115.035 23.127 114.575 22.6873 113.998 22.3744C113.42 22.0617 112.717 21.9056 111.888 21.9056C110.644 21.9056 109.778 22.1442 109.289 22.6202C108.801 23.097 108.556 23.6186 108.556 24.1841V33.6561C108.793 33.8947 109.214 34.1772 109.822 34.5049C110.429 34.8329 111.132 34.9961 111.932 34.9961C113.443 34.9961 114.553 34.4009 115.264 33.2092C115.975 32.018 116.33 30.3496 116.33 28.2049ZM127.365 35.89C127.156 35.2945 127.022 34.6687 126.963 34.0133C126.903 33.3583 126.873 32.7033 126.873 32.0471V11.3164C127.081 11.2872 127.305 11.2572 127.543 11.2271C127.751 11.1978 127.975 11.1756 128.213 11.1601C128.452 11.1455 128.69 11.1379 128.928 11.1379C129.404 11.1379 129.881 11.1826 130.358 11.2718C130.834 11.3613 131.266 11.54 131.654 11.8079C132.041 12.0759 132.353 12.4412 132.592 12.9025C132.83 13.3646 132.949 13.9679 132.949 14.7119V17.884H139.205V22.3969H132.949V31.9245C132.949 34.0023 133.798 35.0408 135.496 35.0408C135.913 35.0408 136.307 34.9742 136.68 34.8398C137.052 34.7058 137.387 34.5571 137.686 34.3932C137.983 34.2294 138.244 34.0582 138.467 33.8794C138.691 33.7005 138.847 33.5667 138.936 33.4774C139.383 34.1331 139.725 34.7006 139.964 35.1795C140.202 35.6591 140.321 36.1091 140.321 36.5296C140.321 36.9208 140.165 37.3044 139.852 37.68C139.539 38.0556 139.1 38.4019 138.534 38.7174C137.968 39.0328 137.283 39.2883 136.479 39.4839C135.675 39.6794 134.796 39.7773 133.843 39.7773C131.996 39.7773 130.559 39.4196 129.531 38.705C128.504 37.9898 127.781 37.0514 127.365 35.89ZM154.594 35.309C155.341 35.309 155.999 35.2274 156.567 35.0632C157.135 34.9 157.643 34.6988 158.091 34.4605C158.539 34.2224 158.928 33.9617 159.257 33.6786C159.586 33.3958 159.884 33.1352 160.154 32.8964C160.512 33.343 160.886 33.9169 161.275 34.6163C161.663 35.3169 161.857 35.89 161.857 36.3365C161.857 36.9921 161.485 37.5878 160.741 38.1239C160.115 38.6007 159.228 39.0103 158.082 39.3523C156.935 39.6946 155.587 39.8662 154.039 39.8662C152.638 39.8662 151.261 39.6876 149.906 39.3301C148.55 38.9729 147.344 38.3472 146.287 37.4534C145.229 36.5603 144.373 35.3615 143.718 33.8571C143.062 32.353 142.735 30.4546 142.735 28.1604C142.735 26.2837 143.025 24.6685 143.606 23.3129C144.187 21.9578 144.961 20.8333 145.93 19.9397C146.897 19.0461 147.992 18.3913 149.213 17.9737C150.434 17.5571 151.686 17.3483 152.967 17.3483C154.634 17.3483 156.049 17.6094 157.211 18.1301C158.373 18.6516 159.318 19.3517 160.048 20.2301C160.777 21.1088 161.306 22.1141 161.634 23.2459C161.961 24.3781 162.125 25.5691 162.125 26.8201V27.4455C162.125 27.6845 162.118 27.937 162.103 28.205C162.088 28.4733 162.073 28.7344 162.059 28.9869C162.043 29.2406 162.021 29.4414 161.992 29.5902H148.811C148.931 31.2286 149.439 32.5911 150.335 33.6786C151.231 34.7661 152.651 35.309 154.594 35.309ZM156.63 26.2391C156.63 24.8095 156.353 23.6479 155.798 22.7543C155.244 21.8608 154.248 21.4138 152.811 21.4138C151.582 21.4138 150.601 21.8384 149.867 22.6873C149.133 23.5363 148.766 24.7201 148.766 26.239H156.63V26.2391ZM172.7 20.0525C172.878 19.7867 173.116 19.4913 173.414 19.1659C173.712 18.8407 174.077 18.5452 174.509 18.2794C174.941 18.0135 175.417 17.7914 175.939 17.6142C176.459 17.4369 177.018 17.3483 177.615 17.3483C177.972 17.3483 178.352 17.3782 178.754 17.4369C179.156 17.4962 179.528 17.6072 179.87 17.7692C180.213 17.9319 180.489 18.1531 180.697 18.4338C180.905 18.7145 181.01 19.0615 181.01 19.4748C181.01 20.1246 180.846 20.871 180.518 21.7136C180.19 22.5569 179.863 23.276 179.536 23.8714C179.029 23.4546 178.522 23.1343 178.016 22.9109C177.51 22.6876 176.914 22.5757 176.229 22.5757C175.306 22.5757 174.532 22.8447 173.906 23.3821C173.28 23.9196 172.968 24.5619 172.968 25.3087V39.7722H166.892V17.9735C167.04 17.9443 167.219 17.9143 167.427 17.8843C167.606 17.8551 167.815 17.8326 168.053 17.8172C168.291 17.8026 168.574 17.795 168.902 17.795C169.855 17.795 170.681 17.9798 171.382 18.3486C172.081 18.7171 172.521 19.2853 172.7 20.0525ZM189.975 20.0525C190.154 19.7867 190.392 19.4913 190.69 19.1659C190.988 18.8407 191.353 18.5452 191.785 18.2794C192.216 18.0135 192.693 17.7914 193.215 17.6142C193.735 17.4369 194.294 17.3483 194.89 17.3483C195.247 17.3483 195.627 17.3782 196.029 17.4369C196.431 17.4962 196.803 17.6072 197.146 17.7692C197.489 17.9319 197.764 18.1531 197.973 18.4338C198.181 18.7145 198.286 19.0615 198.286 19.4748C198.286 20.1246 198.121 20.871 197.794 21.7136C197.466 22.5569 197.139 23.276 196.811 23.8714C196.305 23.4546 195.798 23.1343 195.292 22.9109C194.786 22.6876 194.19 22.5757 193.505 22.5757C192.582 22.5757 191.807 22.8447 191.182 23.3821C190.556 23.9196 190.244 24.5619 190.244 25.3087V39.7722H184.167V17.9735C184.316 17.9443 184.495 17.9143 184.703 17.8843C184.882 17.8551 185.091 17.8326 185.329 17.8172C185.567 17.8026 185.85 17.795 186.178 17.795C187.131 17.795 187.957 17.9798 188.657 18.3486C189.357 18.7171 189.796 19.2853 189.975 20.0525ZM218.972 33.9238C218.972 36.277 219.314 37.9898 220 39.0621C219.464 39.2701 218.965 39.4193 218.503 39.5086C218.041 39.5981 217.557 39.6426 217.051 39.6426C215.979 39.6426 215.167 39.4341 214.616 39.0172C214.065 38.6006 213.715 38.0049 213.566 37.23C212.911 37.9158 212.047 38.4963 210.975 38.973C209.903 39.4487 208.591 39.6876 207.043 39.6876C206.239 39.6876 205.435 39.5761 204.63 39.3541C203.826 39.1304 203.096 38.7673 202.441 38.2632C201.786 37.758 201.249 37.0825 200.833 36.2362C200.415 35.3899 200.207 34.3583 200.207 33.1412C200.207 31.6269 200.571 30.3943 201.302 29.4446C202.031 28.4941 202.947 27.7446 204.05 27.1951C205.151 26.6462 206.343 26.2684 207.624 26.06C208.904 25.8519 210.081 25.7187 211.154 25.6586C211.511 25.6292 211.861 25.6139 212.204 25.6139H213.164V24.8007C213.164 23.6558 212.858 22.8424 212.248 22.3608C211.637 21.879 210.647 21.6375 209.277 21.6375C207.996 21.6375 206.857 21.8462 205.859 22.2629C204.861 22.6804 203.886 23.1565 202.933 23.6928C202.515 23.1865 202.18 22.6282 201.927 22.0173C201.674 21.4072 201.548 20.9528 201.548 20.6546C201.548 20.2379 201.778 19.8357 202.24 19.4482C202.702 19.0616 203.335 18.7111 204.139 18.3983C204.943 18.0855 205.866 17.8329 206.909 17.6388C207.951 17.4454 209.054 17.3484 210.215 17.3484C211.824 17.3484 213.186 17.5125 214.303 17.8399C215.42 18.168 216.329 18.6741 217.029 19.3589C217.728 20.0446 218.227 20.9004 218.526 21.9279C218.823 22.9556 218.972 24.155 218.972 25.5245V33.9238ZM213.253 28.7412H212.628C212.419 28.7412 212.21 28.7567 212.002 28.7861C211.258 28.8461 210.52 28.9353 209.791 29.0539C209.06 29.1733 208.413 29.3819 207.847 29.6796C207.281 29.9776 206.82 30.3651 206.462 30.841C206.105 31.3179 205.926 31.9288 205.926 32.6731C205.926 33.5072 206.164 34.2142 206.641 34.7952C207.117 35.3761 207.922 35.6665 209.054 35.6665C209.619 35.6665 210.155 35.5926 210.662 35.4428C211.168 35.2945 211.615 35.1008 212.002 34.8624C212.389 34.6241 212.695 34.3637 212.918 34.0803C213.142 33.7976 213.253 33.5372 213.253 33.2987V28.7412H213.253Z" fill="#044D80"/>
</svg>